# xmcd
#
# Track frame offsets:
#   150
#   12183
#   32901
#   46983
#   59508
#   76686
#   93776
#   107898
#   122091
#   140723
#   157036
#   171616
#
# Disc length: 2489 seconds
#
# Revision: 0
# Processed by: cddbd v1.5.1PL0 Copyright (c) Steve Scherf et al.
# Submitted via: uFREEDB 1.6.0
#
DISCID=a009b70c
DTITLE=Diversos - Sertanejo Vol 3
DYEAR=1900
DGENRE=Country
TTITLE0=Atração Fatal
TTITLE1=Um, Dois, Três
TTITLE2=Não Acredito
TTITLE3=Coisa Boa É Mulher
TTITLE4=Eu Menti
TTITLE5=Majestade O Sabiá
TTITLE6=Cunhada Boa
TTITLE7=De São Paulo a Belém
TTITLE8=Paixão Proibida
TTITLE9=Carta ao Meu Pai
TTITLE10=Eu Quero Ser Feliz
TTITLE11=Não Faz Assim
EXTD=
EXTT0=
EXTT1=
EXTT2=
EXTT3=
EXTT4=
EXTT5=
EXTT6=
EXTT7=
EXTT8=
EXTT9=
EXTT10=
EXTT11=
PLAYORDER=
